PathFileType	4	(x/y/z)	S05_PSF_T06
DataRate	CameraRate	NumFrames	NumMarkers	Units	OrigDataRate	OrigDataStartFrame	OrigNumFrames
240	240	6	50	mm	240	377	430
Frame#	Time	Sternum			R.Acromium			L.Acromium			Top.Head			R.ASIS			L.ASIS			R.PSIS			L.PSIS			R.Great.Tro			L.Great.Tro			R.Iliac.Crest			L.Iliac.Crest			V.Sacral			R.Thigh.Upper.Post			R.Thigh.Lower.Ant			R.Thigh.Lower.Post			R.Thigh.Upper.Ant			R.Knee.Lat			R.Knee.Med			R.Shank.Upper.Post			R.Shank.Lower.Ant			R.Shank.Lower.Post			R.Shank.Upper.Ant			R.Ankle.Lat			R.Ankle.Med			R.Heel.Upper			R.Heel.Med			R.Heel.Lat			R.Toe.Lat			R.Toe.Med			R.Toe.Tip			L.Thigh.Upper.Post			L.Thigh.Lower.Ant			L.Thigh.Lower.Post			L.Thigh.Upper.Ant			L.Knee.Lat			L.Shank.Upper.Post			L.Shank.Lower.Ant			L.Shank.Lower.Post			L.Shank.Upper.Ant			L.Ankle.Lat			L.Ankle.Med			L.Heel.Upper			L.Heel.Med			L.Heel.Lat			L.Toe.Lat			L.Toe.Med			L.Toe.Tip			Cervical.Spine			Back			
		X1	Y1	Z1	X2	Y2	Z2	X3	Y3	Z3	X4	Y4	Z4	X5	Y5	Z5	X6	Y6	Z6	X7	Y7	Z7	X8	Y8	Z8	X9	Y9	Z9	X10	Y10	Z10	X11	Y11	Z11	X12	Y12	Z12	X13	Y13	Z13	X14	Y14	Z14	X15	Y15	Z15	X16	Y16	Z16	X17	Y17	Z17	X18	Y18	Z18	X19	Y19	Z19	X20	Y20	Z20	X21	Y21	Z21	X22	Y22	Z22	X23	Y23	Z23	X24	Y24	Z24	X25	Y25	Z25	X26	Y26	Z26	X27	Y27	Z27	X28	Y28	Z28	X29	Y29	Z29	X30	Y30	Z30	X31	Y31	Z31	X32	Y32	Z32	X33	Y33	Z33	X34	Y34	Z34	X35	Y35	Z35	X36	Y36	Z36	X37	Y37	Z37	X38	Y38	Z38	X39	Y39	Z39	X40	Y40	Z40	X41	Y41	Z41	X42	Y42	Z42	X43	Y43	Z43	X44	Y44	Z44	X45	Y45	Z45	X46	Y46	Z46	X47	Y47	Z47	X48	Y48	Z48	X49	Y49	Z49	X50	Y50	Z50	

377	1.5667	578.39	1262.6	258.46	491.62	1528.6	403.67	482.43	1539.2	81.035	499.6	1833	222.2	513.62	1016.4	386.19	517.38	1021	135.79	314.22	1031.2	303.36	316.27	1039.1	212.31	443.63	931.82	453.35	419.53	944.79	67.681	421.59	1099.9	427.17	427.84	1097.6	90.136	302.55	999.28	268.26	570.45	739.31	451.65	643.48	691.26	398.49	590.91	652.79	431.43	618.39	775.59	417.74	607.58	554.99	408.97	624.08	545.52	278.64	527.86	317.97	382.08	587.62	251.91	390.66	529.1	242.96	365.64	587.26	328.21	405.89	574.2	147.15	372.21	598.84	174.62	287.12	518.63	89.945	297.39	537.9	59.892	272.28	523.03	61.946	335.32	673.54	63.682	418.24	727.17	77.994	310.4	772	112.08	364.06	388.85	710.51	78.278	459.72	627.87	99.413	387.85	616.17	97.749	467.37	716.45	78.609	382.38	522.17	108.3	288.48	332.21	119.73	346.65	265.18	119.07	278.2	262.34	140.28	353.45	334.44	104.32	289.22	117.91	151.61	332.87	133.63	234.05	230.77	73.718	210.75	245.99	47.583	241.18	229.95	46.351	181.75	405.49	37.108	108.96	440.93	49.395	225.79	499.2	54.921	165.04	444.39	1572.2	245.5	321.57	1302.1	250.93
378	1.5708	583.6	1261.9	258.48	496.87	1527.8	403.94	487.8	1538.7	81.318	504.85	1832.3	222.92	519	1015.6	386.08	522.46	1020.3	135.7	319.52	1030.8	303.51	321.48	1038.8	212.5	448.9	931.09	453.3	424.15	944.47	67.681	427.06	1099.2	427.22	432.95	1097.1	90.175	307.71	998.95	268.38	575.01	738.12	451.28	647.86	689.96	398	595.24	651.58	430.97	623	774.32	417.37	612.4	554.05	408.29	628.77	544.59	277.81	539.06	315.02	382.29	600.69	250.79	391.12	542.46	240.04	366.1	598.11	327.08	406.07	590.61	145.43	373.11	614.34	173.3	287.95	536.72	86.43	298.54	556.8	56.884	273.46	541.88	58.697	336.51	692.37	64.873	419.25	745.53	80.423	311.43	789.45	115.88	364.94	391.88	710.53	78.319	462.19	627.44	99.564	390.28	616.2	97.879	470.43	715.95	78.612	384.05	522.2	108.47	289.34	332.6	120.02	347.25	265.34	119.23	278.85	262.76	140.6	354.28	334.58	104.47	289.45	118.12	151.85	333.28	133.72	234.27	230.95	73.906	211.03	246.17	47.715	241.41	230.06	46.566	182.02	405.5	37.14	109	441.09	49.263	225.8	499.34	54.696	165.04	449.71	1571.6	245.79	326.85	1301.5	251.01
379	1.575	588.84	1261.2	258.53	502.13	1526.9	404.22	493.17	1538.1	81.618	510.11	1831.7	223.66	524.38	1014.8	385.99	527.54	1019.6	135.62	324.84	1030.3	303.67	326.71	1038.5	212.69	454.16	930.29	453.23	428.79	944.13	67.673	432.54	1098.4	427.28	438.08	1096.6	90.223	312.9	998.58	268.51	579.51	736.83	450.92	652.15	688.51	397.52	599.48	650.26	430.52	627.54	772.93	416.99	617.13	553.02	407.63	633.35	543.56	276.97	550.24	312.18	382.55	613.69	249.83	391.59	555.79	237.28	366.61	608.89	326.06	406.26	606.97	143.97	374.03	629.77	172.2	288.78	554.8	83.228	299.73	575.64	54.208	274.67	560.7	55.782	337.74	711.07	66.378	420.25	763.7	83.137	312.42	806.7	119.93	365.77	394.94	710.53	78.367	464.68	626.99	99.726	392.73	616.22	98.009	473.51	715.44	78.622	385.76	522.22	108.64	290.23	332.98	120.31	347.87	265.49	119.39	279.51	263.18	140.92	355.14	334.72	104.63	289.68	118.34	152.1	333.69	133.82	234.48	231.13	74.103	211.31	246.35	47.858	241.66	230.17	46.787	182.29	405.52	37.17	109.04	441.25	49.136	225.81	499.48	54.475	165.03	455.04	1570.9	246.1	332.14	1300.9	251.11
380	1.5792	594.1	1260.4	258.59	507.4	1526	404.53	498.55	1537.6	81.936	515.37	1830.9	224.42	529.79	1013.9	385.91	532.65	1018.9	135.55	330.18	1029.8	303.83	331.95	1038.1	212.89	459.43	929.43	453.16	433.44	943.75	67.656	438.02	1097.6	427.35	443.22	1096	90.281	318.09	998.16	268.64	583.95	735.44	450.56	656.36	686.94	397.03	603.62	648.83	430.08	632.03	771.41	416.6	621.79	551.91	406.97	637.82	542.43	276.12	561.38	309.46	382.85	626.61	249.05	392.08	569.07	234.71	367.16	619.6	325.14	406.46	623.25	142.78	374.96	645.1	171.35	289.62	572.82	80.343	300.93	594.4	51.867	275.88	579.46	53.204	338.98	729.62	68.191	421.22	781.66	86.128	313.38	823.73	124.23	366.55	398.03	710.51	78.421	467.2	626.53	99.893	395.23	616.23	98.135	476.62	714.91	78.64	387.5	522.22	108.8	291.13	333.37	120.6	348.5	265.65	119.54	280.19	263.61	141.25	356.01	334.86	104.79	289.91	118.56	152.34	334.1	133.91	234.69	231.32	74.311	211.6	246.53	48.016	241.91	230.27	47.017	182.56	405.53	37.197	109.07	441.42	49.016	225.82	499.62	54.257	165.02	460.38	1570.2	246.42	337.44	1300.2	251.23
381	1.5833	599.37	1259.6	258.67	512.68	1525.1	404.86	503.94	1536.9	82.273	520.64	1830.2	225.2	535.21	1013	385.84	537.76	1018.1	135.5	335.53	1029.3	304.01	337.2	1037.7	213.1	464.71	928.5	453.09	438.11	943.35	67.63	443.5	1096.7	427.43	448.37	1095.4	90.347	323.31	997.7	268.78	588.34	733.96	450.21	660.49	685.24	396.54	607.68	647.3	429.67	636.48	769.78	416.19	626.39	550.73	406.33	642.18	541.21	275.26	572.46	306.86	383.2	639.43	248.43	392.58	582.28	232.31	367.74	630.23	324.32	406.67	639.43	141.83	375.89	660.31	170.72	290.46	590.75	77.777	302.16	613.05	49.86	277.1	598.14	50.961	340.24	748	70.3	422.16	799.37	89.387	314.28	840.51	128.75	367.27	401.15	710.47	78.478	469.75	626.05	100.06	397.76	616.22	98.258	479.76	714.36	78.663	389.29	522.22	108.96	292.07	333.76	120.89	349.15	265.8	119.69	280.9	264.04	141.57	356.91	334.99	104.94	290.14	118.79	152.58	334.52	134.01	234.9	231.51	74.53	211.88	246.72	48.188	242.16	230.38	47.257	182.84	405.54	37.22	109.11	441.58	48.9	225.82	499.75	54.043	165	465.72	1569.4	246.77	342.77	1299.5	251.36
382	1.5875	604.67	1258.8	258.76	517.97	1524.1	405.21	509.33	1536.3	82.629	525.92	1829.4	226	540.65	1012	385.78	542.89	1017.3	135.45	340.9	1028.7	304.19	342.46	1037.3	213.32	469.99	927.5	453.01	442.79	942.93	67.594	448.97	1095.8	427.53	453.54	1094.7	90.423	328.54	997.2	268.92	592.7	732.39	449.87	664.55	683.44	396.05	611.68	645.67	429.27	640.88	768.04	415.78	630.94	549.48	405.7	646.46	539.9	274.39	583.49	304.4	383.58	652.14	247.98	393.09	595.41	230.1	368.36	640.77	323.61	406.9	655.48	141.14	376.82	675.37	170.32	291.3	608.56	75.526	303.4	631.54	48.185	278.32	616.69	49.049	341.51	766.16	72.691	423.07	816.82	92.9	315.12	857.01	133.5	367.91	404.31	710.4	78.537	472.34	625.55	100.23	400.34	616.19	98.373	482.94	713.8	78.692	391.13	522.2	109.11	293.03	334.15	121.17	349.83	265.95	119.84	281.63	264.47	141.88	357.84	335.11	105.09	290.38	119.03	152.82	334.94	134.11	235.1	231.69	74.764	212.17	246.9	48.377	242.41	230.49	47.508	183.11	405.55	37.24	109.15	441.74	48.789	225.82	499.88	53.833	164.99	471.08	1568.6	247.14	348.1	1298.7	251.51
